<svg width="38" height="46" viewBox="0 0 38 46" fill="none" xmlns="http://www.w3.org/2000/svg">
<path d="M37.0771 35.4587C36.3996 37.0171 35.5976 38.4516 34.6685 39.7705C33.402 41.5684 32.3649 42.813 31.5658 43.5041C30.3269 44.6385 28.9995 45.2194 27.5781 45.2525C26.5577 45.2525 25.3271 44.9634 23.8947 44.3769C22.4575 43.7932 21.1368 43.5041 19.9292 43.5041C18.6626 43.5041 17.3043 43.7932 15.8514 44.3769C14.3962 44.9634 13.224 45.269 12.3277 45.2993C10.9647 45.3571 9.60612 44.7596 8.25 43.5041C7.38442 42.7524 6.30181 41.4638 5.00482 39.6383C3.61331 37.6889 2.46931 35.4284 1.57304 32.8512C0.61319 30.0676 0.132019 27.3721 0.132019 24.7624C0.132019 21.7731 0.780775 19.1948 2.08021 17.0342C3.10146 15.2988 4.46007 13.9298 6.16049 12.9248C7.86087 11.9198 9.69819 11.4077 11.6768 11.375C12.7594 11.375 14.1792 11.7084 15.9435 12.3637C17.7028 13.0212 18.8324 13.3546 19.3277 13.3546C19.698 13.3546 20.9529 12.9647 23.0803 12.1875C25.0921 11.4666 26.79 11.1681 28.181 11.2857C31.9501 11.5886 34.7818 13.068 36.6651 15.7333C33.2941 17.7669 31.6266 20.6153 31.6598 24.2693C31.6902 27.1154 32.7272 29.4839 34.7652 31.3645C35.6889 32.2373 36.7203 32.9119 37.868 33.391C37.6191 34.1096 37.3564 34.7979 37.0771 35.4587V35.4587ZM28.4326 1.58941C28.4326 3.82021 27.6141 5.90312 25.9825 7.83104C24.0136 10.123 21.6321 11.4473 19.0495 11.2383C19.0149 10.9579 18.9975 10.6756 18.9975 10.393C18.9975 8.25148 19.9338 5.95955 21.5967 4.08562C22.4268 3.1368 23.4826 2.34789 24.763 1.71854C26.0406 1.0986 27.249 0.755747 28.3856 0.697021C28.4188 0.995235 28.4326 1.29349 28.4326 1.58937V1.58941Z" fill="#333B42"/>
</svg>
