<svg width="24" height="21" viewBox="0 0 24 21" fill="none" xmlns="http://www.w3.org/2000/svg">
<path d="M3.36168 20.4001H20.6284C22.788 20.4001 23.8929 19.3153 23.8929 17.1758V7.33203C23.8929 5.20257 22.788 4.1077 20.6284 4.1077H18.0871V3.31417C18.0871 1.41574 17.0626 0.511719 15.1641 0.511719H8.81592C7.00788 0.511719 5.90297 1.41574 5.90297 3.31417V4.1077H3.36168C1.21212 4.1077 0.097168 5.20257 0.097168 7.33203V17.1758C0.097168 19.3153 1.21212 20.4001 3.36168 20.4001ZM7.74114 3.23382C7.74114 2.56083 8.14293 2.17913 8.84605 2.17913H15.144C15.8472 2.17913 16.2389 2.56083 16.2389 3.23382V4.1077H7.74114V3.23382ZM3.44203 18.4715C2.56815 18.4715 2.09605 18.0296 2.09605 17.1155V7.3923C2.09605 6.48828 2.56815 6.03627 3.44203 6.03627H20.5481C21.4219 6.03627 21.894 6.48828 21.894 7.3923V17.1155C21.894 18.0296 21.4219 18.4715 20.5481 18.4715H3.44203ZM7.12842 13.1479C7.12842 13.7405 7.54025 14.1423 8.13288 14.1423H10.1117V16.1211C10.1117 16.7137 10.5034 17.1155 11.0961 17.1155H12.884C13.4766 17.1155 13.8784 16.7137 13.8784 16.1211V14.1423H15.8572C16.4498 14.1423 16.8516 13.7405 16.8516 13.1479V11.3599C16.8516 10.7673 16.4498 10.3756 15.8572 10.3756H13.8784V8.39676C13.8784 7.80413 13.4766 7.40234 12.884 7.40234H11.0961C10.5034 7.40234 10.1117 7.80413 10.1117 8.39676V10.3756H8.13288C7.5302 10.3756 7.12842 10.7673 7.12842 11.3599V13.1479Z" fill="#0094DA"/>
</svg>
