<svg width="24" height="24" viewBox="0 0 24 24" fill="none" xmlns="http://www.w3.org/2000/svg">
<path fill-rule="evenodd" clip-rule="evenodd" d="M14.3295 7C15.9945 7 17.25 8.3585 17.25 10.16V13.594C17.25 14.516 16.924 15.349 16.3315 15.94C15.8 16.4695 15.1105 16.75 14.3375 16.75H9.41095C8.63945 16.75 7.95045 16.47 7.41845 15.94C6.82595 15.349 6.49995 14.516 6.49995 13.594V10.16C6.49995 8.3585 7.75545 7 9.42045 7H14.3295ZM14.3295 7.75H9.42045C8.16295 7.75 7.24995 8.7635 7.24995 10.16V13.594C7.24995 14.3155 7.49795 14.96 7.94795 15.4085C8.33595 15.796 8.84245 16 9.41245 16H14.3295C14.3305 15.999 14.3345 16 14.3375 16C14.908 16 15.4139 15.796 15.802 15.4085C16.2525 14.96 16.5 14.3155 16.5 13.594V10.16C16.5 8.7635 15.587 7.75 14.3295 7.75ZM15.1174 10.0644C15.2479 10.2249 15.2234 10.4609 15.063 10.5919L12.841 12.3979C12.56 12.6209 12.224 12.7324 11.8885 12.7324C11.554 12.7324 11.2205 12.6219 10.9415 12.4009L8.69895 10.5929C8.53745 10.4629 8.51245 10.2264 8.64195 10.0654C8.77245 9.9049 9.00845 9.8794 9.16945 10.0089L11.41 11.8149C11.6915 12.0379 12.088 12.0379 12.3715 11.8129L14.5894 10.0099C14.7505 9.8784 14.9865 9.9034 15.1174 10.0644Z" fill="white"/>
<rect x="0.5" y="0.5" width="23" height="23" rx="11.5" stroke="white"/>
</svg>
