<svg width="14" height="12" viewBox="0 0 14 12" fill="none" xmlns="http://www.w3.org/2000/svg">
<path fill-rule="evenodd" clip-rule="evenodd" d="M7.00194 0.666992C9.75927 0.668992 12.2353 2.60166 13.6259 5.83766C13.6806 5.96366 13.6806 6.10633 13.6259 6.23233C12.2359 9.46899 9.75927 11.4017 7.00194 11.4037H6.99794C4.2406 11.4017 1.7646 9.46899 0.373935 6.23233C0.319935 6.10633 0.319935 5.96366 0.373935 5.83766C1.7646 2.60166 4.24127 0.668992 6.99794 0.666992H7.00194ZM6.99994 1.66699C4.70927 1.66766 2.61994 3.29633 1.37994 6.03499C2.61994 8.77433 4.7086 10.403 6.99994 10.4037C9.29127 10.403 11.3799 8.77433 12.6199 6.03499C11.3799 3.29633 9.29127 1.66766 6.99994 1.66699ZM6.99974 3.42753C8.43774 3.42753 9.60774 4.59753 9.60774 6.03553C9.60774 7.47286 8.43774 8.64219 6.99974 8.64219C5.56174 8.64219 4.3924 7.47286 4.3924 6.03553C4.3924 4.59753 5.56174 3.42753 6.99974 3.42753ZM6.99974 4.42753C6.11307 4.42753 5.3924 5.14886 5.3924 6.03553C5.3924 6.92153 6.11307 7.64219 6.99974 7.64219C7.8864 7.64219 8.60774 6.92153 8.60774 6.03553C8.60774 5.14886 7.8864 4.42753 6.99974 4.42753Z" fill="#0094DA"/>
</svg>
