<svg width="21" height="21" viewBox="0 0 21 21" fill="none" xmlns="http://www.w3.org/2000/svg">
<path fill-rule="evenodd" clip-rule="evenodd" d="M2.35941 3.0613C2.36141 3.0613 2.31141 3.1133 2.24841 3.1753C2.00641 3.4103 1.50541 3.8993 1.50036 4.9223C1.49241 6.3533 2.43341 9.0103 6.96441 13.5403C11.4744 18.0483 14.1274 19.0003 15.5614 19.0003H15.5824C16.6054 18.9953 17.0934 18.4933 17.3294 18.2523C17.4014 18.1783 17.4594 18.1243 17.5004 18.0903C18.4964 17.0883 19.0064 16.3423 19.0014 15.8643C18.9944 15.3763 18.3874 14.7993 17.5484 14.0013C17.2814 13.7473 16.9914 13.4713 16.6854 13.1653C15.8924 12.3743 15.4994 12.5093 14.6354 12.8133C13.4404 13.2323 11.8004 13.8023 9.25241 11.2533C6.70041 8.7033 7.27141 7.0653 7.68941 5.8703C7.99141 5.0063 8.12941 4.6123 7.33541 3.8183C7.02441 3.5083 6.74541 3.2143 6.48841 2.9443C5.69541 2.1103 5.12341 1.5073 4.63841 1.5003H4.63041C4.15141 1.5003 3.40741 2.0123 2.35441 3.0653C2.35741 3.0623 2.35841 3.0613 2.35941 3.0613ZM15.5624 20.5003C13.0704 20.5003 9.82141 18.5163 5.90441 14.6013C1.97241 10.6703 -0.0145882 7.4113 0.000327493 4.9143C0.00941179 3.2643 0.874412 2.4193 1.19941 2.1023C1.21641 2.0813 1.27441 2.0243 1.29441 2.0043C2.72841 0.569303 3.69541 -0.0106975 4.65741 0.000149137C5.77441 0.0153025 6.56941 0.851303 7.57541 1.9103C7.82441 2.1723 8.09441 2.4573 8.39541 2.7573C9.85541 4.2173 9.43941 5.4083 9.10541 6.3643C8.74141 7.4073 8.42641 8.3073 10.3124 10.1933C12.2004 12.0793 13.1004 11.7643 14.1394 11.3973C15.0964 11.0633 16.2844 10.6453 17.7464 12.1053C18.0424 12.4013 18.3234 12.6683 18.5824 12.9153C19.6464 13.9263 20.4864 14.7253 20.5006 15.8453C20.5124 16.8003 19.9324 17.7733 18.5004 19.2063L17.8664 18.7763L18.4024 19.3003C18.0854 19.6253 17.2414 20.4913 15.5904 20.5003H15.5624Z" fill="#0094DA"/>
</svg>
