<svg width="28" height="26" viewBox="0 0 28 26" fill="none" xmlns="http://www.w3.org/2000/svg">
<path d="M4.05573 14.8128C4.05573 16.3798 5.02002 17.786 6.70752 18.8206V19.7849C6.15507 19.9657 5.81355 20.4479 5.81355 21.1108V23.8128C5.81355 24.6666 6.37605 25.2291 7.22984 25.2291H7.65172C8.50551 25.2291 9.06801 24.6666 9.06801 23.8128V21.1108C9.06801 20.4579 8.73654 19.9657 8.19413 19.7849V19.5539C9.77114 20.1867 11.7499 20.5583 13.9899 20.5583C19.8961 20.5583 23.9341 18.007 23.9341 14.8128V10.3128L26.7868 9.00701C27.4999 8.67554 27.8917 8.04273 27.8917 7.35969C27.8917 6.6867 27.4999 6.04384 26.7868 5.72241L16.8526 1.18223C15.7577 0.690046 14.8738 0.459019 13.9899 0.469064C13.116 0.459019 12.2321 0.690046 11.1272 1.18223L1.20306 5.72241C0.479841 6.04384 0.0981445 6.6867 0.0981445 7.35969C0.0981445 8.04273 0.479841 8.67554 1.20306 9.00701L4.05573 10.3128V14.8128ZM13.9899 12.2816C13.347 12.2816 12.7343 12.1209 11.9006 11.7291L9.22873 10.5238L13.0557 8.51482C13.3571 8.59518 13.6885 8.6454 14.0301 8.6454C15.1752 8.6454 16.2801 8.11304 16.2801 7.35969C16.2801 6.62643 15.1752 6.10411 14.0301 6.10411C12.8749 6.10411 11.76 6.62643 11.76 7.35969C11.76 7.46014 11.7801 7.55054 11.8102 7.63089L7.63163 9.79049L2.95082 7.66103C2.79011 7.59072 2.70975 7.49027 2.70975 7.35969C2.70975 7.23915 2.79011 7.12866 2.95082 7.05835L11.9006 2.99027C12.7343 2.60857 13.347 2.43781 13.9899 2.43781C14.6327 2.43781 15.2455 2.60857 16.0892 2.99027L25.039 7.05835C25.1897 7.12866 25.27 7.23915 25.27 7.35969C25.27 7.49027 25.1897 7.59072 25.039 7.66103L16.0892 11.7291C15.2455 12.1209 14.6327 12.2816 13.9899 12.2816ZM5.99435 14.8128V11.1967L6.70752 11.5182V16.4501C6.23542 15.9378 5.99435 15.3854 5.99435 14.8128ZM13.9899 14.2604C14.8738 14.2704 15.7577 14.0394 16.8526 13.5371L21.9955 11.1967V14.8128C21.9955 16.8519 18.8214 18.7302 13.9899 18.7302C11.5892 18.7302 9.59033 18.2581 8.19413 17.5349V12.2012L11.1272 13.5371C12.2321 14.0394 13.116 14.2704 13.9899 14.2604Z" fill="#0094DA"/>
</svg>
