<svg width="28" height="28" viewBox="0 0 28 28" fill="none" xmlns="http://www.w3.org/2000/svg">
<path fill-rule="evenodd" clip-rule="evenodd" d="M14 0.666626C21.352 0.666626 27.3334 6.64796 27.3334 14C27.3334 21.352 21.352 27.3333 14 27.3333C6.64802 27.3333 0.666687 21.352 0.666687 14C0.666687 6.64796 6.64802 0.666626 14 0.666626ZM14 2.66663C7.75069 2.66663 2.66669 7.75063 2.66669 14C2.66669 20.2493 7.75069 25.3333 14 25.3333C20.2494 25.3333 25.3334 20.2493 25.3334 14C25.3334 7.75063 20.2494 2.66663 14 2.66663ZM12.7835 8.66356L17.4315 13.2916C17.6195 13.4796 17.7248 13.7342 17.7248 13.9996C17.7248 14.2662 17.6195 14.5209 17.4315 14.7089L12.7835 19.3356C12.5888 19.5302 12.3328 19.6276 12.0782 19.6276C11.8222 19.6276 11.5648 19.5302 11.3702 19.3329C10.9808 18.9409 10.9822 18.3089 11.3728 17.9196L15.3088 13.9996L11.3728 10.0809C10.9822 9.69156 10.9808 9.05823 11.3702 8.66623C11.7595 8.27289 12.3915 8.27556 12.7835 8.66356Z" fill="#333B42"/>
</svg>
