<svg width="16" height="17" viewBox="0 0 16 17" fill="none" xmlns="http://www.w3.org/2000/svg">
<path d="M3.96205 11.5215C3.91685 14.4897 6.32757 16.7045 10.0416 16.7347L11.1264 16.7422C12.1434 16.7573 12.9194 16.6819 13.3714 16.5614C14.0494 16.3956 14.6445 15.9662 14.6445 15.2054C14.6445 14.904 14.5767 14.6855 14.4788 14.5123C14.4261 14.4219 14.4336 14.3465 14.5165 14.3164C15.0287 14.0829 15.4129 13.6083 15.4129 12.983C15.4129 12.6289 15.315 12.3125 15.1493 12.079C15.0739 11.9735 15.089 11.8831 15.2095 11.8153C15.5711 11.5818 15.8122 11.1297 15.8122 10.6024C15.8122 10.2257 15.6992 9.82645 15.4883 9.62305C15.3903 9.52511 15.4054 9.45731 15.5184 9.35938C15.767 9.1409 15.9177 8.7567 15.9177 8.31975C15.9177 7.50614 15.2849 6.85073 14.4637 6.85073H11.6613C10.9833 6.85073 10.5388 6.51172 10.5388 5.96177C10.5388 4.91462 11.8722 2.95592 11.8722 1.53209C11.8722 0.763672 11.375 0.289062 10.7045 0.289062C10.1244 0.289062 9.8231 0.67327 9.4841 1.31362C8.30134 3.61133 6.73437 5.47963 5.52148 7.07673C4.47433 8.47042 3.99219 9.65318 3.96205 11.5215ZM0.0371094 11.5818C0.0371094 14 1.53627 15.9888 3.53264 15.9888H4.88867C3.48744 14.9116 2.81696 13.322 2.8471 11.4989C2.87723 9.54771 3.57031 8.13142 4.31613 7.15206H3.23884C1.42327 7.15206 0.0371094 9.08817 0.0371094 11.5818Z" fill="#29C773"/>
</svg>
