<svg width="16" height="17" viewBox="0 0 16 17" fill="none" xmlns="http://www.w3.org/2000/svg">
<path d="M12.0379 5.40454C12.0831 2.43634 9.6724 0.213967 5.95086 0.183833L4.86604 0.176299C3.84902 0.168766 3.0806 0.244101 2.62859 0.357103C1.95058 0.530373 1.3479 0.952248 1.3479 1.72066C1.3479 2.01447 1.42324 2.24047 1.52117 2.41374C1.5739 2.50415 1.55884 2.57195 1.4835 2.60961C0.971226 2.83562 0.579485 3.31023 0.579485 3.94304C0.579485 4.28958 0.684954 4.61352 0.850691 4.84706C0.926025 4.94499 0.910958 5.03539 0.790423 5.11073C0.428816 5.33673 0.180211 5.79628 0.180211 6.32362C0.180211 6.70029 0.300746 7.09204 0.50415 7.29544C0.609619 7.39337 0.594552 7.46118 0.48155 7.55911C0.225412 7.78512 0.0822754 8.16179 0.0822754 8.60627C0.0822754 9.41988 0.707554 10.0678 1.53624 10.0678H4.33869C5.01671 10.0678 5.46118 10.4143 5.46118 10.9567C5.46118 12.0114 4.12022 13.9701 4.12022 15.3939C4.12022 16.1623 4.61743 16.637 5.28791 16.637C5.86799 16.637 6.17686 16.2527 6.50834 15.6049C7.69109 13.3072 9.26559 11.4464 10.4709 9.84176C11.5181 8.4556 12.0078 7.26531 12.0379 5.40454ZM15.9629 5.33673C15.9629 2.92602 14.4637 0.937181 12.4598 0.937181H11.1113C12.5125 2.00694 13.183 3.60403 13.1529 5.4196C13.1227 7.37831 12.4221 8.7946 11.6838 9.77396H12.7611C14.5767 9.77396 15.9629 7.83032 15.9629 5.33673Z" fill="#FF6551"/>
</svg>
