<svg width="14" height="15" viewBox="0 0 14 15" fill="none" xmlns="http://www.w3.org/2000/svg">
<path fill-rule="evenodd" clip-rule="evenodd" d="M9.52898 0.666504C9.80498 0.666504 10.029 0.890504 10.029 1.1665L10.0293 1.73171C11.0027 1.79845 11.8111 2.13187 12.3833 2.70524C13.008 3.33257 13.3366 4.23457 13.3333 5.31657V11.3986C13.3333 13.6199 11.9226 14.9999 9.65265 14.9999H4.01398C1.74398 14.9999 0.333313 13.6006 0.333313 11.3479V5.31524C0.333313 3.22003 1.59135 1.87513 3.6431 1.73194L3.64351 1.1665C3.64351 0.890504 3.86751 0.666504 4.14351 0.666504C4.41951 0.666504 4.64351 0.890504 4.64351 1.1665L4.64331 1.71917H9.02865L9.02898 1.1665C9.02898 0.890504 9.25298 0.666504 9.52898 0.666504ZM12.3333 6.6025H1.33331V11.3479C1.33331 13.0586 2.28531 13.9999 4.01398 13.9999H9.65265C11.3813 13.9999 12.3333 13.0759 12.3333 11.3986L12.3333 6.6025ZM9.80078 10.7974C10.0768 10.7974 10.3008 11.0214 10.3008 11.2974C10.3008 11.5734 10.0768 11.7974 9.80078 11.7974C9.52478 11.7974 9.29811 11.5734 9.29811 11.2974C9.29811 11.0214 9.51878 10.7974 9.79478 10.7974H9.80078ZM6.84245 10.7974C7.11845 10.7974 7.34245 11.0214 7.34245 11.2974C7.34245 11.5734 7.11845 11.7974 6.84245 11.7974C6.56645 11.7974 6.33978 11.5734 6.33978 11.2974C6.33978 11.0214 6.56045 10.7974 6.83645 10.7974H6.84245ZM3.87791 10.7974C4.15391 10.7974 4.37791 11.0214 4.37791 11.2974C4.37791 11.5734 4.15391 11.7974 3.87791 11.7974C3.60191 11.7974 3.37458 11.5734 3.37458 11.2974C3.37458 11.0214 3.59591 10.7974 3.87191 10.7974H3.87791ZM9.80078 8.20624C10.0768 8.20624 10.3008 8.43024 10.3008 8.70624C10.3008 8.98224 10.0768 9.20624 9.80078 9.20624C9.52478 9.20624 9.29811 8.98224 9.29811 8.70624C9.29811 8.43024 9.51878 8.20624 9.79478 8.20624H9.80078ZM6.84245 8.20624C7.11845 8.20624 7.34245 8.43024 7.34245 8.70624C7.34245 8.98224 7.11845 9.20624 6.84245 9.20624C6.56645 9.20624 6.33978 8.98224 6.33978 8.70624C6.33978 8.43024 6.56045 8.20624 6.83645 8.20624H6.84245ZM3.87791 8.20624C4.15391 8.20624 4.37791 8.43024 4.37791 8.70624C4.37791 8.98224 4.15391 9.20624 3.87791 9.20624C3.60191 9.20624 3.37458 8.98224 3.37458 8.70624C3.37458 8.43024 3.59591 8.20624 3.87191 8.20624H3.87791ZM9.02865 2.71917H4.64331L4.64351 3.3605C4.64351 3.6365 4.41951 3.8605 4.14351 3.8605C3.86751 3.8605 3.64351 3.6365 3.64351 3.3605L3.64316 2.73431C2.14967 2.85977 1.33331 3.76507 1.33331 5.31524V5.6025H12.3333L12.3333 5.31524C12.336 4.4919 12.1146 3.8519 11.6753 3.4119C11.2897 3.02511 10.7259 2.7941 10.0295 2.73463L10.029 3.3605C10.029 3.6365 9.80498 3.8605 9.52898 3.8605C9.25298 3.8605 9.02898 3.6365 9.02898 3.3605L9.02865 2.71917Z" fill="white"/>
</svg>
