<svg width="14" height="15" viewBox="0 0 14 15" fill="none" xmlns="http://www.w3.org/2000/svg">
<path fill-rule="evenodd" clip-rule="evenodd" d="M9.529 0.667969C9.805 0.667969 10.029 0.891969 10.029 1.16797L10.0293 1.73318C11.0027 1.79991 11.8111 2.13333 12.3833 2.7067C13.008 3.33404 13.3367 4.23604 13.3334 5.31804V11.4C13.3334 13.6214 11.9227 15.0014 9.65266 15.0014H4.01399C1.74399 15.0014 0.333328 13.602 0.333328 11.3494V5.3167C0.333328 3.2215 1.59137 1.8766 3.64312 1.7334L3.64353 1.16797C3.64353 0.891969 3.86753 0.667969 4.14353 0.667969C4.41953 0.667969 4.64353 0.891969 4.64353 1.16797L4.64333 1.72064H9.02866L9.029 1.16797C9.029 0.891969 9.253 0.667969 9.529 0.667969ZM12.3333 6.60397H1.33333V11.3494C1.33333 13.06 2.28533 14.0014 4.01399 14.0014H9.65266C11.3813 14.0014 12.3334 13.0774 12.3334 11.4L12.3333 6.60397ZM9.80079 10.7988C10.0768 10.7988 10.3008 11.0228 10.3008 11.2988C10.3008 11.5748 10.0768 11.7988 9.80079 11.7988C9.52479 11.7988 9.29813 11.5748 9.29813 11.2988C9.29813 11.0228 9.5188 10.7988 9.7948 10.7988H9.80079ZM6.84246 10.7988C7.11846 10.7988 7.34246 11.0228 7.34246 11.2988C7.34246 11.5748 7.11846 11.7988 6.84246 11.7988C6.56646 11.7988 6.3398 11.5748 6.3398 11.2988C6.3398 11.0228 6.56046 10.7988 6.83646 10.7988H6.84246ZM3.87793 10.7988C4.15393 10.7988 4.37793 11.0228 4.37793 11.2988C4.37793 11.5748 4.15393 11.7988 3.87793 11.7988C3.60193 11.7988 3.3746 11.5748 3.3746 11.2988C3.3746 11.0228 3.59593 10.7988 3.87193 10.7988H3.87793ZM9.80079 8.2077C10.0768 8.2077 10.3008 8.4317 10.3008 8.7077C10.3008 8.9837 10.0768 9.2077 9.80079 9.2077C9.52479 9.2077 9.29813 8.9837 9.29813 8.7077C9.29813 8.4317 9.5188 8.2077 9.7948 8.2077H9.80079ZM6.84246 8.2077C7.11846 8.2077 7.34246 8.4317 7.34246 8.7077C7.34246 8.9837 7.11846 9.2077 6.84246 9.2077C6.56646 9.2077 6.3398 8.9837 6.3398 8.7077C6.3398 8.4317 6.56046 8.2077 6.83646 8.2077H6.84246ZM3.87793 8.2077C4.15393 8.2077 4.37793 8.4317 4.37793 8.7077C4.37793 8.9837 4.15393 9.2077 3.87793 9.2077C3.60193 9.2077 3.3746 8.9837 3.3746 8.7077C3.3746 8.4317 3.59593 8.2077 3.87193 8.2077H3.87793ZM9.02866 2.72064H4.64333L4.64353 3.36197C4.64353 3.63797 4.41953 3.86197 4.14353 3.86197C3.86753 3.86197 3.64353 3.63797 3.64353 3.36197L3.64317 2.73577C2.14969 2.86123 1.33333 3.76654 1.33333 5.3167V5.60397H12.3333L12.3334 5.3167C12.336 4.49337 12.1147 3.85337 11.6753 3.41337C11.2897 3.02657 10.7259 2.79557 10.0296 2.73609L10.029 3.36197C10.029 3.63797 9.805 3.86197 9.529 3.86197C9.253 3.86197 9.029 3.63797 9.029 3.36197L9.02866 2.72064Z" fill="#0094DA"/>
</svg>
