<svg width="28" height="28" viewBox="0 0 28 28" fill="none" xmlns="http://www.w3.org/2000/svg">
<path fill-rule="evenodd" clip-rule="evenodd" d="M14 0.666626C21.352 0.666626 27.3333 6.64796 27.3333 14C27.3333 21.352 21.352 27.3333 14 27.3333C6.64799 27.3333 0.666656 21.352 0.666656 14C0.666656 6.64796 6.64799 0.666626 14 0.666626ZM14 2.66663C7.75066 2.66663 2.66666 7.75063 2.66666 14C2.66666 20.2493 7.75066 25.3333 14 25.3333C20.2493 25.3333 25.3333 20.2493 25.3333 14C25.3333 7.75063 20.2493 2.66663 14 2.66663ZM16.6312 8.66623C17.0219 9.05823 17.0192 9.69156 16.6285 10.0809L12.6925 13.9996L16.6285 17.9196C17.0192 18.3089 17.0219 18.9409 16.6312 19.3329C16.4365 19.5302 16.1792 19.6276 15.9232 19.6276C15.6685 19.6276 15.4125 19.5302 15.2179 19.3356L10.5685 14.7089C10.3805 14.5209 10.2752 14.2662 10.2752 13.9996C10.2752 13.7342 10.3805 13.4796 10.5685 13.2916L15.2179 8.66356C15.6085 8.27423 16.2405 8.27423 16.6312 8.66623Z" fill="#333B42"/>
</svg>
