<svg width="18" height="17" viewBox="0 0 18 17" fill="none" xmlns="http://www.w3.org/2000/svg">
<path d="M8.64579 11.8285L9.79841 10.6608C8.90946 10.5855 8.26911 10.2917 7.80957 9.83214C6.53641 8.55898 6.53641 6.75848 7.80204 5.50038L10.3032 2.99174C11.5763 1.72611 13.3693 1.71858 14.6424 2.99174C15.9231 4.27243 15.9081 6.0654 14.65 7.33102L13.3693 8.60418C13.6104 9.16166 13.6932 9.83967 13.5576 10.4273L15.7122 8.28024C17.5654 6.43454 17.573 3.79782 15.7047 1.92951C13.8288 0.0536775 11.2072 0.0687445 9.35393 1.92198L6.73228 4.54363C4.87905 6.39687 4.87151 9.02605 6.73982 10.8944C7.17676 11.3388 7.77944 11.6703 8.64579 11.8285ZM9.3464 5.46272L8.19378 6.63041C9.08273 6.71327 9.72307 6.99955 10.1826 7.45909C11.4633 8.73225 11.4558 10.5328 10.1902 11.7984L7.68903 14.2995C6.41588 15.5726 4.62291 15.5726 3.35728 14.2995C2.07659 13.0188 2.08412 11.2334 3.34975 9.96774L4.62291 8.68705C4.38184 8.1371 4.3065 7.45909 4.43457 6.86394L2.27999 9.01852C0.426758 10.8642 0.419224 13.4934 2.28753 15.3617C4.16336 17.2375 6.78502 17.2225 8.63825 15.3768L11.2599 12.7476C13.1131 10.8944 13.1207 8.26517 11.2524 6.39687C10.8154 5.95993 10.2203 5.62845 9.3464 5.46272Z" fill="#0094DA"/>
</svg>
