<svg width="16" height="16" viewBox="0 0 16 16" fill="none" xmlns="http://www.w3.org/2000/svg">
<g clip-path="url(#clip0_146_331)">
<path d="M4.66667 4.0013H15.3333C15.5101 4.0013 15.6797 3.93106 15.8047 3.80604C15.9298 3.68102 16 3.51145 16 3.33464C16 3.15782 15.9298 2.98826 15.8047 2.86323C15.6797 2.73821 15.5101 2.66797 15.3333 2.66797H4.66667C4.48986 2.66797 4.32029 2.73821 4.19526 2.86323C4.07024 2.98826 4 3.15782 4 3.33464C4 3.51145 4.07024 3.68102 4.19526 3.80604C4.32029 3.93106 4.48986 4.0013 4.66667 4.0013Z" fill="#1C2126"/>
<path d="M15.3333 7.33203H4.66667C4.48986 7.33203 4.32029 7.40227 4.19526 7.52729C4.07024 7.65232 4 7.82189 4 7.9987C4 8.17551 4.07024 8.34508 4.19526 8.4701C4.32029 8.59513 4.48986 8.66536 4.66667 8.66536H15.3333C15.5101 8.66536 15.6797 8.59513 15.8047 8.4701C15.9298 8.34508 16 8.17551 16 7.9987C16 7.82189 15.9298 7.65232 15.8047 7.52729C15.6797 7.40227 15.5101 7.33203 15.3333 7.33203Z" fill="#1C2126"/>
<path d="M15.3333 12H4.66667C4.48986 12 4.32029 12.0702 4.19526 12.1953C4.07024 12.3203 4 12.4899 4 12.6667C4 12.8435 4.07024 13.013 4.19526 13.1381C4.32029 13.2631 4.48986 13.3333 4.66667 13.3333H15.3333C15.5101 13.3333 15.6797 13.2631 15.8047 13.1381C15.9298 13.013 16 12.8435 16 12.6667C16 12.4899 15.9298 12.3203 15.8047 12.1953C15.6797 12.0702 15.5101 12 15.3333 12Z" fill="#1C2126"/>
<path d="M1.33333 4.66667C2.06971 4.66667 2.66667 4.06971 2.66667 3.33333C2.66667 2.59695 2.06971 2 1.33333 2C0.596954 2 0 2.59695 0 3.33333C0 4.06971 0.596954 4.66667 1.33333 4.66667Z" fill="#1C2126"/>
<path d="M1.33333 9.33464C2.06971 9.33464 2.66667 8.73768 2.66667 8.0013C2.66667 7.26492 2.06971 6.66797 1.33333 6.66797C0.596954 6.66797 0 7.26492 0 8.0013C0 8.73768 0.596954 9.33464 1.33333 9.33464Z" fill="#1C2126"/>
<path d="M1.33333 13.9987C2.06971 13.9987 2.66667 13.4017 2.66667 12.6654C2.66667 11.929 2.06971 11.332 1.33333 11.332C0.596954 11.332 0 11.929 0 12.6654C0 13.4017 0.596954 13.9987 1.33333 13.9987Z" fill="#1C2126"/>
</g>
<defs>
<clipPath id="clip0_146_331">
<rect width="16" height="16" fill="white"/>
</clipPath>
</defs>
</svg>
