<svg width="12" height="14" viewBox="0 0 12 14" fill="none" xmlns="http://www.w3.org/2000/svg">
<path fill-rule="evenodd" clip-rule="evenodd" d="M6.16632 0.333252C9.19899 0.333252 11.6663 2.81925 11.6663 5.87525C11.6663 9.63192 7.36232 13.3333 6.16632 13.3333C4.97032 13.3333 0.666321 9.63192 0.666321 5.87525C0.666321 2.81925 3.13365 0.333252 6.16632 0.333252ZM6.16632 1.33325C3.68499 1.33325 1.66632 3.37125 1.66632 5.87525C1.66632 9.06125 5.41565 12.1653 6.16632 12.3306C6.91699 12.1646 10.6663 9.06059 10.6663 5.87525C10.6663 3.37125 8.64765 1.33325 6.16632 1.33325ZM6.16699 3.66659C7.36165 3.66659 8.33365 4.63859 8.33365 5.83392C8.33365 7.02859 7.36165 7.99992 6.16699 7.99992C4.97232 7.99992 4.00032 7.02859 4.00032 5.83392C4.00032 4.63859 4.97232 3.66659 6.16699 3.66659ZM6.16699 4.66659C5.52365 4.66659 5.00032 5.18992 5.00032 5.83392C5.00032 6.47725 5.52365 6.99992 6.16699 6.99992C6.81032 6.99992 7.33365 6.47725 7.33365 5.83392C7.33365 5.18992 6.81032 4.66659 6.16699 4.66659Z" fill="#0094DA"/>
</svg>
