<svg width="24" height="24" viewBox="0 0 24 24" fill="none" xmlns="http://www.w3.org/2000/svg">
<path fill-rule="evenodd" clip-rule="evenodd" d="M12.1248 7C14.3993 7 16.2498 8.8645 16.2498 11.1565C16.2498 13.974 13.0217 16.75 12.1248 16.75C11.2278 16.75 7.99975 13.974 7.99975 11.1565C7.99975 8.8645 9.85025 7 12.1248 7ZM12.1248 7.75C10.2638 7.75 8.74975 9.2785 8.74975 11.1565C8.74975 13.546 11.5618 15.874 12.1248 15.998C12.6878 15.8735 15.4998 13.5455 15.4998 11.1565C15.4998 9.2785 13.9858 7.75 12.1248 7.75ZM12.1252 9.5C13.0212 9.5 13.7502 10.229 13.7502 11.1255C13.7502 12.0215 13.0212 12.75 12.1252 12.75C11.2292 12.75 10.5003 12.0215 10.5003 11.1255C10.5003 10.229 11.2292 9.5 12.1252 9.5ZM12.1252 10.25C11.6427 10.25 11.2503 10.6425 11.2503 11.1255C11.2503 11.608 11.6427 12 12.1252 12C12.6077 12 13.0002 11.608 13.0002 11.1255C13.0002 10.6425 12.6077 10.25 12.1252 10.25Z" fill="white"/>
<rect x="0.5" y="0.5" width="23" height="23" rx="11.5" stroke="white"/>
</svg>
