<svg width="29" height="29" viewBox="0 0 29 29" fill="none" xmlns="http://www.w3.org/2000/svg">
<path fill-rule="evenodd" clip-rule="evenodd" d="M14.6645 0.332031C18.4952 0.332031 22.0952 1.82136 24.7992 4.5267C30.3885 10.116 30.3885 19.2094 24.7992 24.7987C22.0592 27.54 18.3698 28.9907 14.6325 28.9907C12.5952 28.9907 10.5445 28.56 8.62583 27.672C8.0605 27.4454 7.53117 27.232 7.15117 27.232C6.71383 27.2347 6.12583 27.4374 5.55783 27.6334C4.3925 28.0334 2.94183 28.532 1.8685 27.4627C0.799168 26.392 1.2925 24.9454 1.68983 23.7814C1.88583 23.208 2.08717 22.616 2.08717 22.168C2.08717 21.8 1.90983 21.3307 1.63783 20.6547C-0.859499 15.2614 0.295168 8.76136 4.53117 4.52803C7.23517 1.8227 10.8338 0.332031 14.6645 0.332031ZM14.6658 2.33203C11.3685 2.33203 8.27117 3.6147 5.9445 5.9427C2.29917 9.58537 1.30717 15.1787 3.47383 19.8627C3.78583 20.6347 4.08717 21.3867 4.08717 22.168C4.08717 22.948 3.81917 23.7334 3.58317 24.4267C3.3885 24.9974 3.09383 25.8587 3.28317 26.048C3.4685 26.24 4.33517 25.9374 4.90717 25.7414C5.59383 25.5067 6.3725 25.2374 7.1445 25.232C7.91783 25.232 8.64717 25.5254 9.41917 25.836C14.1485 28.0227 19.7418 27.028 23.3858 23.3854C28.1938 18.5747 28.1938 10.7494 23.3858 5.94137C21.0578 3.61336 17.9618 2.33203 14.6658 2.33203ZM19.9284 13.8823C20.6644 13.8823 21.2617 14.4783 21.2617 15.2156C21.2617 15.953 20.6644 16.549 19.9284 16.549C19.1924 16.549 18.5897 15.953 18.5897 15.2156C18.5897 14.4783 19.1804 13.8823 19.9164 13.8823H19.9284ZM14.5833 13.8823C15.3193 13.8823 15.9166 14.4783 15.9166 15.2156C15.9166 15.953 15.3193 16.549 14.5833 16.549C13.8473 16.549 13.2446 15.953 13.2446 15.2156C13.2446 14.4783 13.834 13.8823 14.5713 13.8823H14.5833ZM9.2377 13.8823C9.9737 13.8823 10.571 14.4783 10.571 15.2156C10.571 15.953 9.9737 16.549 9.2377 16.549C8.5017 16.549 7.89903 15.953 7.89903 15.2156C7.89903 14.4783 8.4897 13.8823 9.2257 13.8823H9.2377Z" fill="#0094DA"/>
</svg>
