<svg width="24" height="24" viewBox="0 0 24 24" fill="none" xmlns="http://www.w3.org/2000/svg">
<path fill-rule="evenodd" clip-rule="evenodd" d="M9.32875 7.00027C9.88725 7.00777 10.2852 7.42627 10.7887 7.95577C10.9132 8.08627 11.0477 8.22877 11.1982 8.37877C11.9277 9.10877 11.7203 9.70427 11.5528 10.1823C11.3707 10.7038 11.2133 11.1538 12.1562 12.0968C13.0992 13.0398 13.5487 12.8823 14.0697 12.6988C14.5482 12.5318 15.1423 12.3228 15.8733 13.0528C16.0218 13.2013 16.1617 13.3343 16.2917 13.4578C16.8232 13.9638 17.2433 14.3633 17.2503 14.9233C17.2558 15.4003 16.9657 15.8873 16.2498 16.6033L15.9327 16.3883L16.2013 16.6498C16.0428 16.8123 15.6213 17.2453 14.7958 17.2503H14.7807C13.5347 17.2503 11.9102 16.2583 9.95225 14.3008C7.98625 12.3353 6.99275 10.7058 7.00021 9.45727C7.00475 8.63227 7.43725 8.20977 7.59975 8.05127L7.61362 8.03612L7.64725 8.00227C8.36475 7.28477 8.85775 6.98977 9.32875 7.00027ZM9.31925 7.75027H9.31525C9.09072 7.75027 8.74973 7.97527 8.27416 8.43722L8.17867 8.531L8.17975 8.53077C8.18035 8.53077 8.17159 8.54013 8.15768 8.55431L8.12425 8.58777C8.00325 8.70527 7.75275 8.94977 7.75022 9.46127C7.74625 10.1768 8.21675 11.5053 10.4822 13.7703C12.7367 16.0243 14.0632 16.5003 14.7807 16.5003H14.7913C15.3028 16.4973 15.5468 16.2468 15.6643 16.1263C15.6997 16.0898 15.7288 16.0623 15.7493 16.0458C16.2478 15.5443 16.5027 15.1718 16.5003 14.9323C16.4972 14.6883 16.1938 14.4003 15.7743 14.0008C15.6407 13.8743 15.4957 13.7358 15.3427 13.5828C14.9457 13.1873 14.7502 13.2548 14.3177 13.4068C13.7203 13.6163 12.9017 13.9033 11.6262 12.6268C10.3502 11.3513 10.6362 10.5328 10.8447 9.93477C10.9957 9.50277 11.0647 9.30627 10.6682 8.90927C10.5132 8.75427 10.3737 8.60727 10.2452 8.47227C9.84825 8.05527 9.56175 7.75377 9.31925 7.75027ZM13.6233 8.77902C14.6638 8.98102 15.4673 9.78402 15.6698 10.825C15.7093 11.029 15.5768 11.2255 15.3738 11.265C15.3493 11.2695 15.3253 11.272 15.3013 11.272C15.1253 11.272 14.9688 11.148 14.9338 10.969C14.7898 10.229 14.2193 9.65852 13.4803 9.51502C13.2768 9.47552 13.1443 9.27902 13.1838 9.07552C13.2233 8.87202 13.4233 8.73902 13.6233 8.77902ZM13.5933 7.00312C15.6323 7.22962 17.2158 8.81112 17.4444 10.8496C17.4674 11.0556 17.3193 11.2411 17.1138 11.2641C17.0998 11.2656 17.0854 11.2666 17.0714 11.2666C16.8828 11.2666 16.7208 11.1251 16.6994 10.9336C16.5099 9.24562 15.1989 7.93562 13.5104 7.74812C13.3049 7.72512 13.1564 7.54012 13.1793 7.33412C13.2018 7.12862 13.3853 6.97712 13.5933 7.00312Z" fill="white"/>
<rect x="0.5" y="0.5" width="23" height="23" rx="11.5" stroke="white"/>
</svg>
