<svg width="36" height="40" viewBox="0 0 36 40" fill="none" xmlns="http://www.w3.org/2000/svg">
<path d="M0.274707 2.77926C0.274707 1.88134 0.508048 1.21247 0.888831 0.78043L19.7863 19.6573V19.9201L0.904134 38.8023C0.510351 38.3881 0.274707 37.7216 0.274707 36.8189V2.77926Z" fill="#333B42" stroke="white" stroke-width="0.4"/>
<path d="M26.3654 13.4681L26.3653 13.4682L26.3721 13.4721L33.899 17.7494L33.8996 17.7497C34.9407 18.3366 35.4143 19.0851 35.4143 19.7932C35.4143 20.5018 34.9402 21.2546 33.8986 21.8498L26.3764 26.1244C26.3742 26.1256 26.3724 26.1266 26.3716 26.1271L26.3627 26.1322L26.3613 26.133L20.1696 19.9393V19.6597L26.3628 13.4665L26.3654 13.4681Z" fill="#333B42" stroke="white" stroke-width="0.4"/>
<path d="M1.0614 38.9907L19.9697 20.0824L26.142 26.2567L3.878 38.9207C3.87781 38.9209 3.87761 38.921 3.87742 38.9211C2.69476 39.5812 1.69055 39.5291 1.0614 38.9907Z" fill="#333B42" stroke="white" stroke-width="0.4"/>
<path d="M3.87672 0.6962L26.1418 13.3444L19.9676 19.5166L1.06135 0.626785C1.69175 0.085461 2.69807 0.0221533 3.87622 0.695916L3.87672 0.6962Z" fill="#333B42" stroke="white" stroke-width="0.4"/>
<path opacity="0.12" fill-rule="evenodd" clip-rule="evenodd" d="M33.9959 21.8009L26.315 26.1635L26.4523 26.3008L33.9792 22.0235C35.0569 21.4077 35.5874 20.6047 35.5874 19.7996C35.5187 20.536 34.9716 21.2371 33.9959 21.8009Z" fill="white"/>
<path opacity="0.25" fill-rule="evenodd" clip-rule="evenodd" d="M3.97548 0.744859L33.9958 17.8001C34.9715 18.3472 35.5187 19.065 35.604 19.8014C35.604 18.9984 35.0735 18.1933 33.9958 17.5775L3.97548 0.522255C1.82017 -0.709348 0.074707 0.316294 0.074707 2.7795V3.0021C0.074707 0.538898 1.82017 -0.470101 3.97548 0.744859Z" fill="white"/>
</svg>
